<?xml version="1.0" encoding="UTF-8" standalone="no"?>
<!DOCTYPE svg PUBLIC "-//W3C//DTD SVG 1.1//EN" "http://www.w3.org/Graphics/SVG/1.1/DTD/svg11.dtd">
<svg width="100%" height="100%" viewBox="0 0 24 24" version="1.1" xmlns="http://www.w3.org/2000/svg" xmlns:xlink="http://www.w3.org/1999/xlink" xml:space="preserve" xmlns:serif="http://www.serif.com/" style="fill-rule:evenodd;clip-rule:evenodd;stroke-linejoin:round;stroke-miterlimit:2;">
    <rect x="0" y="0" width="24" height="24" style="fill:none;fill-rule:nonzero;"/>
    <g id="location_city_black_24dp.svg" transform="matrix(1,0,0,1,12,12)">
        <g transform="matrix(1,0,0,1,-12,-12)">
            <rect x="0" y="0" width="24" height="24" style="fill:none;fill-rule:nonzero;"/>
            <path d="M15,11L15,5L12,2L9,5L9,7L3,7L3,21L21,21L21,11L15,11ZM7,19L5,19L5,17L7,17L7,19ZM7,15L5,15L5,13L7,13L7,15ZM7,11L5,11L5,9L7,9L7,11ZM13,19L11,19L11,17L13,17L13,19ZM13,15L11,15L11,13L13,13L13,15ZM13,11L11,11L11,9L13,9L13,11ZM13,7L11,7L11,5L13,5L13,7ZM19,19L17,19L17,17L19,17L19,19ZM19,15L17,15L17,13L19,13L19,15Z" style="fill:rgb(0,98,223);fill-rule:nonzero;"/>
        </g>
    </g>
</svg>
