<?xml version="1.0" encoding="UTF-8" standalone="no"?>
<!DOCTYPE svg PUBLIC "-//W3C//DTD SVG 1.1//EN" "http://www.w3.org/Graphics/SVG/1.1/DTD/svg11.dtd">
<svg width="100%" height="100%" viewBox="0 0 24 24" version="1.1" xmlns="http://www.w3.org/2000/svg" xmlns:xlink="http://www.w3.org/1999/xlink" xml:space="preserve" xmlns:serif="http://www.serif.com/" style="fill-rule:evenodd;clip-rule:evenodd;stroke-linejoin:round;stroke-miterlimit:2;">
    <rect x="0" y="0" width="24" height="24" style="fill:none;fill-rule:nonzero;"/>
    <g id="location_city_black_24dp.svg" transform="matrix(1,0,0,1,35.26,-4.78684)">
        <g transform="matrix(1,0,0,1,-12,-12)">
            <rect x="0" y="0" width="24" height="24" style="fill:none;fill-rule:nonzero;"/>
        </g>
    </g>
    <g id="send_black_24dp.svg" transform="matrix(0.969167,0,0,0.969167,11.63,12.37)">
        <g transform="matrix(1,0,0,1,-12,-12)">
            <clipPath id="_clip1">
                <rect x="0" y="0" width="24" height="24"/>
            </clipPath>
            <g clip-path="url(#_clip1)">
                <rect x="0" y="0" width="24" height="24" style="fill:none;fill-rule:nonzero;"/>
                <path d="M4.01,6.03L11.52,9.25L4,8.25L4.01,6.03M11.51,14.75L4,17.97L4,15.75L11.51,14.75M2.01,3L2,10L17,12L2,14L2.01,21L23,12L2.01,3Z" style="fill:rgb(0,98,223);fill-rule:nonzero;"/>
            </g>
        </g>
    </g>
</svg>
