<?xml version="1.0" encoding="UTF-8" standalone="no"?>
<!DOCTYPE svg PUBLIC "-//W3C//DTD SVG 1.1//EN" "http://www.w3.org/Graphics/SVG/1.1/DTD/svg11.dtd">
<svg width="100%" height="100%" viewBox="0 0 24 24" version="1.1" xmlns="http://www.w3.org/2000/svg" xmlns:xlink="http://www.w3.org/1999/xlink" xml:space="preserve" xmlns:serif="http://www.serif.com/" style="fill-rule:evenodd;clip-rule:evenodd;stroke-linejoin:round;stroke-miterlimit:2;">
    <rect x="0" y="0" width="24" height="24" style="fill:none;fill-rule:nonzero;"/>
    <g id="location_city_black_24dp.svg" transform="matrix(1,0,0,1,35.26,-4.78684)">
        <g transform="matrix(1,0,0,1,-12,-12)">
            <rect x="0" y="0" width="24" height="24" style="fill:none;fill-rule:nonzero;"/>
        </g>
    </g>
    <g id="send_black_24dp.svg" transform="matrix(0.969167,0,0,0.958383,35.26,-3.78387)">
        <g transform="matrix(1,0,0,1,-12,-12)">
            <rect x="0" y="0" width="24" height="24" style="fill:none;fill-rule:nonzero;"/>
        </g>
    </g>
    <g id="label_important_black_24dp.svg" transform="matrix(0.984583,0,0,0.984583,11.815,12)">
        <g transform="matrix(1,0,0,1,-12,-12)">
            <rect x="0" y="0" width="24" height="24" style="fill:none;fill-rule:nonzero;"/>
            <path d="M4,18.99L15,18.99C15.67,18.99 16.27,18.67 16.63,18.16L21,12L16.63,5.84C16.27,5.33 15.67,5 15,5L4,5L9,12L4,18.99Z" style="fill:rgb(0,98,223);fill-rule:nonzero;"/>
        </g>
    </g>
</svg>
