<?xml version="1.0" encoding="UTF-8" standalone="no"?>
<!DOCTYPE svg PUBLIC "-//W3C//DTD SVG 1.1//EN" "http://www.w3.org/Graphics/SVG/1.1/DTD/svg11.dtd">
<svg width="100%" height="100%" viewBox="0 0 24 24" version="1.1" xmlns="http://www.w3.org/2000/svg" xmlns:xlink="http://www.w3.org/1999/xlink" xml:space="preserve" xmlns:serif="http://www.serif.com/" style="fill-rule:evenodd;clip-rule:evenodd;stroke-linejoin:round;stroke-miterlimit:2;">
    <rect x="0" y="0" width="24" height="24" style="fill:none;fill-rule:nonzero;"/>
    <g transform="matrix(1,0,0,1,12,12)">
        <g transform="matrix(1,0,0,1,-12,-12)">
            <rect x="0" y="0" width="24" height="24" style="fill:none;fill-rule:nonzero;"/>
            <g transform="matrix(1,0,0,1,-0.415737,-0.711736)">
                <path d="M12,12C10.9,12 10,11.1 10,10C10,8.9 10.9,8 12,8C13.1,8 14,8.9 14,10C14,11.1 13.1,12 12,12ZM18,10.2C18,6.57 15.35,4 12,4C8.65,4 6,6.57 6,10.2C6,12.54 7.95,15.64 12,19.34C16.05,15.64 18,12.54 18,10.2ZM12,2C16.2,2 20,5.22 20,10.2C20,13.52 17.33,17.45 12,22C6.67,17.45 4,13.52 4,10.2C4,5.22 7.8,2 12,2Z" style="fill:rgb(0,98,223);fill-rule:nonzero;"/>
            </g>
        </g>
    </g>
</svg>
