<?xml version="1.0" encoding="UTF-8" standalone="no"?>
<!DOCTYPE svg PUBLIC "-//W3C//DTD SVG 1.1//EN" "http://www.w3.org/Graphics/SVG/1.1/DTD/svg11.dtd">
<svg width="100%" height="100%" viewBox="0 0 138 119" version="1.1" xmlns="http://www.w3.org/2000/svg" xmlns:xlink="http://www.w3.org/1999/xlink" xml:space="preserve" xmlns:serif="http://www.serif.com/" style="fill-rule:evenodd;clip-rule:evenodd;stroke-linejoin:round;stroke-miterlimit:2;">
    <g transform="matrix(1,0,0,1,-640,-390)">
        <g id="ic_search_24px" transform="matrix(6.17496,0,0,6.17496,635.475,376.475)">
            <path d="M15.5,14L14.71,14L14.43,13.73C15.444,12.554 16.001,11.052 16,9.5C16,5.934 13.066,3 9.5,3C5.934,3 3,5.934 3,9.5C3,13.066 5.934,16 9.5,16C11.11,16 12.59,15.41 13.73,14.43L14,14.71L14,15.5L19,20.49L20.49,19L15.5,14ZM9.5,14C7.01,14 5,11.99 5,9.5C5,7.01 7.01,5 9.5,5C11.99,5 14,7.01 14,9.5C14,11.99 11.99,14 9.5,14Z" style="fill:rgb(242,242,242);fill-rule:nonzero;"/>
        </g>
    </g>
</svg>
